<svg width="114" height="46" viewBox="0 0 114 46" fill="none" xmlns="http://www.w3.org/2000/svg">
<path d="M97 21.9019H112.804" stroke="#ACADB9" stroke-width="2.25773" stroke-linecap="round" stroke-linejoin="round"/>
<path d="M104.902 14L112.804 21.9021L104.902 29.8041" stroke="#ACADB9" stroke-width="2.25773" stroke-linecap="round" stroke-linejoin="round"/>
<path d="M13.48 16.1L8.26 30H5.62L0.38 16.1H2.82L6.94 27.66L11.08 16.1H13.48ZM16.4467 17.52C16.0334 17.52 15.6867 17.38 15.4067 17.1C15.1267 16.82 14.9867 16.4733 14.9867 16.06C14.9867 15.6467 15.1267 15.3 15.4067 15.02C15.6867 14.74 16.0334 14.6 16.4467 14.6C16.8467 14.6 17.1867 14.74 17.4667 15.02C17.7467 15.3 17.8867 15.6467 17.8867 16.06C17.8867 16.4733 17.7467 16.82 17.4667 17.1C17.1867 17.38 16.8467 17.52 16.4467 17.52ZM17.5667 18.98V30H15.2867V18.98H17.5667ZM30.5602 24.22C30.5602 24.6333 30.5335 25.0067 30.4802 25.34H22.0602C22.1268 26.22 22.4535 26.9267 23.0402 27.46C23.6268 27.9933 24.3468 28.26 25.2002 28.26C26.4268 28.26 27.2935 27.7467 27.8002 26.72H30.2602C29.9268 27.7333 29.3202 28.5667 28.4402 29.22C27.5735 29.86 26.4935 30.18 25.2002 30.18C24.1468 30.18 23.2002 29.9467 22.3602 29.48C21.5335 29 20.8802 28.3333 20.4002 27.48C19.9335 26.6133 19.7002 25.6133 19.7002 24.48C19.7002 23.3467 19.9268 22.3533 20.3802 21.5C20.8468 20.6333 21.4935 19.9667 22.3202 19.5C23.1602 19.0333 24.1202 18.8 25.2002 18.8C26.2402 18.8 27.1668 19.0267 27.9802 19.48C28.7935 19.9333 29.4268 20.5733 29.8802 21.4C30.3335 22.2133 30.5602 23.1533 30.5602 24.22ZM28.1802 23.5C28.1668 22.66 27.8668 21.9867 27.2802 21.48C26.6935 20.9733 25.9668 20.72 25.1002 20.72C24.3135 20.72 23.6402 20.9733 23.0802 21.48C22.5202 21.9733 22.1868 22.6467 22.0802 23.5H28.1802ZM47.5039 18.98L44.0839 30H41.6839L39.4639 21.86L37.2439 30H34.8439L31.4039 18.98H33.7239L36.0239 27.84L38.3639 18.98H40.7439L42.9839 27.8L45.2639 18.98H47.5039ZM62.5831 27.16H56.7631L55.7631 30H53.3831L58.3631 16.08H61.0031L65.9831 30H63.5831L62.5831 27.16ZM61.9431 25.3L59.6831 18.84L57.4031 25.3H61.9431ZM70.3284 15.2V30H68.0484V15.2H70.3284ZM75.5019 15.2V30H73.2219V15.2H75.5019Z" fill="#ACADB9"/>
</svg>
