<svg width="62" height="62" viewBox="0 0 62 62" fill="none" xmlns="http://www.w3.org/2000/svg">
<g id="Bookmark">
<circle id="BG" cx="30.8916" cy="30.8916" r="30.8916" fill="#DBD9EE"/>
<path id="Book Mark" d="M37.6606 16.4524C33.1884 15.7027 28.5985 15.7027 24.1263 16.4524C22.4925 16.7264 21.1913 17.9807 20.8637 19.607C19.363 27.0577 19.2811 34.7245 20.6224 42.2055L21.1685 45.2513C21.3368 46.1905 22.4818 46.5658 23.1735 45.9087L29.7651 39.6466C30.3974 39.046 31.3895 39.046 32.0218 39.6466L38.6134 45.9087C39.3051 46.5658 40.4501 46.1905 40.6184 45.2513L41.1645 42.2055C42.5058 34.7245 42.4239 27.0577 40.9232 19.607C40.5956 17.9807 39.2944 16.7264 37.6606 16.4524Z" fill="#6C5FBC"/>
</g>
</svg>
