<svg width="36" height="35" viewBox="0 0 36 35" fill="none" xmlns="http://www.w3.org/2000/svg">
<g id="Star">
<path id="Edit Color" d="M21.7592 28.697C24.0706 29.9621 26.1033 28.4288 25.6612 25.7454L24.8675 20.9274L28.2297 17.5153C30.0996 15.6176 29.3271 13.131 26.7393 12.7395L22.0928 12.0366L20.0252 7.67469C18.867 5.23137 16.3522 5.20509 15.1918 7.65302L13.1139 12.0366L8.46744 12.7395C5.8833 13.1305 5.10448 15.6149 6.97702 17.5153L10.3392 20.9274L9.5455 25.7454C9.10408 28.425 11.1329 29.9639 13.4475 28.697L17.6034 26.4222L21.7592 28.697Z" fill="#6C5FBC"/>
<mask id="mask0_1_14254" style="mask-type:luminance" maskUnits="userSpaceOnUse" x="5" y="5" width="25" height="25">
<path id="Edit Color_2" d="M21.7592 28.697C24.0706 29.9621 26.1033 28.4288 25.6612 25.7454L24.8675 20.9274L28.2297 17.5153C30.0996 15.6176 29.3271 13.131 26.7393 12.7395L22.0928 12.0366L20.0252 7.67469C18.867 5.23137 16.3522 5.20509 15.1918 7.65302L13.1139 12.0366L8.46744 12.7395C5.8833 13.1305 5.10448 15.6149 6.97702 17.5153L10.3392 20.9274L9.5455 25.7454C9.10408 28.425 11.1329 29.9639 13.4475 28.697L17.6034 26.4222L21.7592 28.697Z" fill="white"/>
</mask>
<g mask="url(#mask0_1_14254)">
</g>
</g>
</svg>
